<svg xmlns="http://www.w3.org/2000/svg" xmlns:xlink="http://www.w3.org/1999/xlink">
  <defs>
    <symbol id="rss" viewBox="0 0 16 16">
      <path d="M3 1H1V3H3C8.52285 3 13 7.47715 13 13V15H15V13C15 6.37258 9.62742 1 3 1Z" fill="#000000"></path>
      <path d="M3 6H1V8H3C5.76142 8 8 10.2386 8 13V15H10V13C10 9.13401 6.86599 6 3 6Z" fill="#000000"></path>
      <path d="M3 15C4.10457 15 5 14.1046 5 13C5 11.8954 4.10457 11 3 11C1.89543 11 1 11.8954 1 13C1 14.1046 1.89543 15 3 15Z" fill="#000000"></path>
    </symbol>
    <symbol id="github" viewBox="0 0 32 32">
    <path d="M16 0.396c-8.839 0-16 7.167-16 16 0 7.073 4.584 13.068 10.937 15.183 0.803 0.151 1.093-0.344 1.093-0.772 0-0.38-0.009-1.385-0.015-2.719-4.453 0.964-5.391-2.151-5.391-2.151-0.729-1.844-1.781-2.339-1.781-2.339-1.448-0.989 0.115-0.968 0.115-0.968 1.604 0.109 2.448 1.645 2.448 1.645 1.427 2.448 3.744 1.74 4.661 1.328 0.14-1.031 0.557-1.74 1.011-2.135-3.552-0.401-7.287-1.776-7.287-7.907 0-1.751 0.62-3.177 1.645-4.297-0.177-0.401-0.719-2.031 0.141-4.235 0 0 1.339-0.427 4.4 1.641 1.281-0.355 2.641-0.532 4-0.541 1.36 0.009 2.719 0.187 4 0.541 3.043-2.068 4.381-1.641 4.381-1.641 0.859 2.204 0.317 3.833 0.161 4.235 1.015 1.12 1.635 2.547 1.635 4.297 0 6.145-3.74 7.5-7.296 7.891 0.556 0.479 1.077 1.464 1.077 2.959 0 2.14-0.020 3.864-0.020 4.385 0 0.416 0.28 0.916 1.104 0.755 6.4-2.093 10.979-8.093 10.979-15.156 0-8.833-7.161-16-16-16z"></path>
    </symbol>
    <symbol id="email" viewBox="0 0 512 512">
        <path d="M454.4,90.667H54.613C20.907,90.667,0,110.293,0,141.76v228.373c0,30.613,21.333,51.2,53.12,51.2H454.4 c32.853,0,57.6-21.973,57.6-51.2V141.76C512,110.72,489.387,90.667,454.4,90.667z M54.72,112H454.4 c5.973,0,16.427,1.067,24.533,6.4l-214.08,172.16L32.427,117.653C37.867,114.027,45.227,112,54.72,112z M490.667,370.133 c0,19.627-18.24,29.867-36.267,29.867H53.12c-19.947,0-31.787-11.2-31.787-29.867V141.76c0-1.813,0.213-3.733,0.427-5.547 l237.013,176.32c3.947,2.88,9.28,2.773,13.013-0.213l218.24-175.467c0.32,1.6,0.533,3.307,0.64,5.013L490.667,370.133z"></path>
    </symbol>
  </defs>
</svg>
