<svg xmlns="http://www.w3.org/2000/svg" xmlns:xlink="http://www.w3.org/1999/xlink">
  <defs>
    <symbol id="rss" viewBox="0 0 16 16">
      <path d="M3 1H1V3H3C8.52285 3 13 7.47715 13 13V15H15V13C15 6.37258 9.62742 1 3 1Z" fill="#000000"></path>
      <path d="M3 6H1V8H3C5.76142 8 8 10.2386 8 13V15H10V13C10 9.13401 6.86599 6 3 6Z" fill="#000000"></path>
      <path d="M3 15C4.10457 15 5 14.1046 5 13C5 11.8954 4.10457 11 3 11C1.89543 11 1 11.8954 1 13C1 14.1046 1.89543 15 3 15Z" fill="#000000"></path>
    </symbol>
    <symbol id="github" viewBox="0 0 32 32">
    <path d="M16 0.396c-8.839 0-16 7.167-16 16 0 7.073 4.584 13.068 10.937 15.183 0.803 0.151 1.093-0.344 1.093-0.772 0-0.38-0.009-1.385-0.015-2.719-4.453 0.964-5.391-2.151-5.391-2.151-0.729-1.844-1.781-2.339-1.781-2.339-1.448-0.989 0.115-0.968 0.115-0.968 1.604 0.109 2.448 1.645 2.448 1.645 1.427 2.448 3.744 1.74 4.661 1.328 0.14-1.031 0.557-1.74 1.011-2.135-3.552-0.401-7.287-1.776-7.287-7.907 0-1.751 0.62-3.177 1.645-4.297-0.177-0.401-0.719-2.031 0.141-4.235 0 0 1.339-0.427 4.4 1.641 1.281-0.355 2.641-0.532 4-0.541 1.36 0.009 2.719 0.187 4 0.541 3.043-2.068 4.381-1.641 4.381-1.641 0.859 2.204 0.317 3.833 0.161 4.235 1.015 1.12 1.635 2.547 1.635 4.297 0 6.145-3.74 7.5-7.296 7.891 0.556 0.479 1.077 1.464 1.077 2.959 0 2.14-0.020 3.864-0.020 4.385 0 0.416 0.28 0.916 1.104 0.755 6.4-2.093 10.979-8.093 10.979-15.156 0-8.833-7.161-16-16-16z"></path>
    </symbol>
    <symbol id="email" viewBox="0 0 512 512">
        <path d="M454.4,90.667H54.613C20.907,90.667,0,110.293,0,141.76v228.373c0,30.613,21.333,51.2,53.12,51.2H454.4 c32.853,0,57.6-21.973,57.6-51.2V141.76C512,110.72,489.387,90.667,454.4,90.667z M54.72,112H454.4 c5.973,0,16.427,1.067,24.533,6.4l-214.08,172.16L32.427,117.653C37.867,114.027,45.227,112,54.72,112z M490.667,370.133 c0,19.627-18.24,29.867-36.267,29.867H53.12c-19.947,0-31.787-11.2-31.787-29.867V141.76c0-1.813,0.213-3.733,0.427-5.547 l237.013,176.32c3.947,2.88,9.28,2.773,13.013-0.213l218.24-175.467c0.32,1.6,0.533,3.307,0.64,5.013L490.667,370.133z"></path>
    </symbol>
        <symbol id="twitter" viewBox="0 0 31.812 26">
      <path d="M20.877,2.000 C22.519,2.000 24.382,2.652 25.426,3.738 C26.724,3.486 27.949,3.025 29.050,2.386 C28.625,3.687 27.718,4.779 26.540,5.469 C27.693,5.332 28.797,5.035 29.820,4.590 C29.054,5.707 28.087,6.690 26.971,7.477 C26.981,7.715 26.987,7.955 26.987,8.195 C26.987,15.562 21.445,24.000 10.939,24.000 C7.715,24.000 4.507,23.133 1.982,21.551 C2.428,21.605 2.883,21.631 3.343,21.631 C6.019,21.631 8.482,20.740 10.439,19.242 C7.937,19.199 5.827,17.586 5.103,15.373 C5.450,15.437 5.810,15.473 6.178,15.473 C6.696,15.473 7.203,15.406 7.681,15.277 C5.068,14.768 3.100,12.514 3.100,9.813 C3.100,9.787 3.100,9.764 3.100,9.740 C3.871,10.158 4.750,10.410 5.687,10.440 C4.154,9.437 3.147,7.734 3.147,5.799 C3.147,4.777 3.428,3.818 3.919,2.998 C6.735,6.367 10.945,8.588 15.693,8.822 C15.594,8.414 15.543,7.984 15.543,7.553 C15.543,4.473 17.721,2.000 20.877,2.000 M29.820,4.590 L29.825,4.590 M20.877,-0.000 C17.033,-0.000 14.060,2.753 13.614,6.552 C10.425,5.905 7.524,4.204 5.440,1.711 C5.061,1.257 4.503,0.998 3.919,0.998 C3.867,0.998 3.815,1.000 3.763,1.004 C3.123,1.055 2.547,1.413 2.216,1.966 C1.525,3.122 1.159,4.447 1.159,5.799 C1.159,6.700 1.321,7.579 1.625,8.400 C1.300,8.762 1.113,9.238 1.113,9.740 L1.113,9.813 C1.113,11.772 1.882,13.589 3.160,14.952 C3.087,15.294 3.103,15.655 3.215,15.998 C3.657,17.348 4.459,18.510 5.499,19.396 C4.800,19.552 4.079,19.631 3.343,19.631 C2.954,19.631 2.577,19.609 2.222,19.565 C2.141,19.556 2.061,19.551 1.981,19.551 C1.148,19.551 0.391,20.078 0.108,20.886 C-0.202,21.770 0.140,22.753 0.932,23.249 C3.764,25.023 7.318,26.000 10.939,26.000 C17.778,26.000 22.025,22.843 24.383,20.195 C27.243,16.984 28.907,12.718 28.972,8.455 C29.899,7.682 30.717,6.790 31.410,5.792 C31.661,5.458 31.810,5.041 31.810,4.590 C31.810,3.909 31.473,3.308 30.958,2.946 C31.181,2.176 30.925,1.342 30.303,0.833 C29.940,0.537 29.496,0.386 29.049,0.386 C28.708,0.386 28.365,0.474 28.056,0.654 C27.391,1.040 26.680,1.344 25.931,1.562 C24.555,0.592 22.688,-0.000 20.877,-0.000 L20.877,-0.000 Z"></path>
    </symbol>
  </defs>
</svg>
