<svg xmlns="http://www.w3.org/2000/svg" xmlns:xlink="http://www.w3.org/1999/xlink">
  <defs>
    <symbol id="rss" viewBox="0 0 16 16">
      <path d="M3 1H1V3H3C8.52285 3 13 7.47715 13 13V15H15V13C15 6.37258 9.62742 1 3 1Z" fill="#000000"></path>
      <path d="M3 6H1V8H3C5.76142 8 8 10.2386 8 13V15H10V13C10 9.13401 6.86599 6 3 6Z" fill="#000000"></path>
      <path d="M3 15C4.10457 15 5 14.1046 5 13C5 11.8954 4.10457 11 3 11C1.89543 11 1 11.8954 1 13C1 14.1046 1.89543 15 3 15Z" fill="#000000"></path>
    </symbol>
    <symbol id="github" viewBox="0 0 32 32">
    <path d="M16 0.396c-8.839 0-16 7.167-16 16 0 7.073 4.584 13.068 10.937 15.183 0.803 0.151 1.093-0.344 1.093-0.772 0-0.38-0.009-1.385-0.015-2.719-4.453 0.964-5.391-2.151-5.391-2.151-0.729-1.844-1.781-2.339-1.781-2.339-1.448-0.989 0.115-0.968 0.115-0.968 1.604 0.109 2.448 1.645 2.448 1.645 1.427 2.448 3.744 1.74 4.661 1.328 0.14-1.031 0.557-1.74 1.011-2.135-3.552-0.401-7.287-1.776-7.287-7.907 0-1.751 0.62-3.177 1.645-4.297-0.177-0.401-0.719-2.031 0.141-4.235 0 0 1.339-0.427 4.4 1.641 1.281-0.355 2.641-0.532 4-0.541 1.36 0.009 2.719 0.187 4 0.541 3.043-2.068 4.381-1.641 4.381-1.641 0.859 2.204 0.317 3.833 0.161 4.235 1.015 1.12 1.635 2.547 1.635 4.297 0 6.145-3.74 7.5-7.296 7.891 0.556 0.479 1.077 1.464 1.077 2.959 0 2.14-0.020 3.864-0.020 4.385 0 0.416 0.28 0.916 1.104 0.755 6.4-2.093 10.979-8.093 10.979-15.156 0-8.833-7.161-16-16-16z"></path>
    </symbol>
    <symbol id="email" viewBox="0 0 24 24">
      <path d="M22,5V9L12,13,2,9V5A1,1,0,0,1,3,4H21A1,1,0,0,1,22,5ZM2,11.154V19a1,1,0,0,0,1,1H21a1,1,0,0,0,1-1V11.154l-10,4Z"></path>
    </symbol>
    <symbol id="twitter" viewBox="0 0 512 512">
      <path style="display: inline;" d="M459.186,151.787c0.203,4.501,0.305,9.023,0.305,13.565 c0,138.542-105.461,298.285-298.274,298.285c-59.209,0-114.322-17.357-160.716-47.104c8.212,0.973,16.546,1.47,25.012,1.47 c49.121,0,94.318-16.759,130.209-44.884c-45.887-0.841-84.596-31.154-97.938-72.804c6.408,1.227,12.968,1.886,19.73,1.886 c9.55,0,18.816-1.287,27.617-3.68c-47.955-9.633-84.1-52.001-84.1-102.795c0-0.446,0-0.882,0.011-1.318 c14.133,7.847,30.294,12.562,47.488,13.109c-28.134-18.796-46.637-50.885-46.637-87.262c0-19.212,5.16-37.218,14.193-52.7 c51.707,63.426,128.941,105.156,216.072,109.536c-1.784-7.675-2.718-15.674-2.718-23.896c0-57.891,46.941-104.832,104.832-104.832 c30.173,0,57.404,12.734,76.525,33.102c23.887-4.694,46.313-13.423,66.569-25.438c-7.827,24.485-24.434,45.025-46.089,58.002 c21.209-2.535,41.426-8.171,60.222-16.505C497.448,118.542,479.666,137.004,459.186,151.787z"> </path>
    </symbol>
  </defs>
</svg>
